<svg xmlns="http://www.w3.org/2000/svg" version="1.1" xmlns:xlink="http://www.w3.org/1999/xlink" xmlns:svgjs="http://svgjs.dev/svgjs" viewBox="0 0 800 800"><g transform="matrix(1,0,0,1,171,-136)"><path d="M629.1510035722558 744.487066304502C631.532762561744 743.1122047805118 634.467237438256 743.1122047805118 636.8489964277442 744.4874512041448L679.1510067672236 768.9104882371098C681.5327657567117 770.2853497611 683.0000031949678 772.8268421023395 683.0000031949678 775.5769500499628V824.4230241158928C683.0000031949678 827.1731320635159 681.5327657567117 829.7146244047555 679.1510067672236 831.0898708283884L636.8489964277442 855.5129078613534C634.467237438256 856.8877693853436 631.532762561744 856.8877693853436 629.1510035722558 855.5125229617106L586.8489932327764 831.0894859287456C584.4672342432883 829.7146244047555 582.9999968050322 827.1731320635159 582.9999968050322 824.4230241158928V775.5769500499628C582.9999968050322 772.8268421023395 584.4672342432883 770.2853497611 586.8489932327764 768.910103337467L629.1510035722558 744.487066304502Z " stroke-width="4" stroke="#ff3895" fill="none" opacity="0.06" transform="rotate(99, 400, 400)"></path><path d="M612.5095092538949 704.0682529228793C615.2882280749643 702.4642478115575 618.7117820975618 702.4642478115575 621.4905009186311 704.0687019724626L670.8428463146905 732.5622451775885C673.62156513576 734.1662502889103 675.3333421470587 737.1313246870232 675.3333421470587 740.3397839592501V797.3268703695019C675.3333421470587 800.5353296417289 673.62156513576 803.5004040398417 670.8428463146905 805.1048582007468L621.4905009186311 833.5984014058727C618.7117820975618 835.2024065171945 615.2882280749643 835.2024065171945 612.5095092538949 833.5979523562894L563.1571638578355 805.1044091511635C560.3784450367662 803.5004040398417 558.6666680254673 800.5353296417289 558.6666680254673 797.3268703695019V740.3397839592501C558.6666680254673 737.1313246870232 560.3784450367662 734.1662502889103 563.1571638578355 732.5617961280052L612.5095092538949 704.0682529228793Z " stroke-width="3.7916666666666665" stroke="#f645a1" fill="none" opacity="0.1383333333333333" transform="rotate(90.75, 400, 400)"></path><path d="M595.8679996767448 663.6494395412566C599.0436783293956 661.8162908426029 602.9563114980784 661.8162908426029 606.1319901507293 663.6499527407802L662.5346706033685 696.2140021180669C665.7103492560192 698.0471508167205 667.6666658403606 701.4358072717066 667.6666658403606 705.1026178685374V770.2307166231108C667.6666658403606 773.8975272199418 665.7103492560192 777.2861836749278 662.5346706033685 779.1198455731051L606.1319901507293 811.6838949503917C602.9563114980784 813.5170436490454 599.0436783293956 813.5170436490454 595.8679996767448 811.6833817508681L539.4653192241055 779.1193323735813C536.2896405714548 777.2861836749278 534.3333239871133 773.8975272199418 534.3333239871133 770.2307166231108V705.1026178685374C534.3333239871133 701.4358072717066 536.2896405714548 698.0471508167205 539.4653192241055 696.2134889185432L595.8679996767448 663.6494395412566Z " stroke-width="3.5833333333333335" stroke="#ed50ab" fill="none" opacity="0.21666666666666665" transform="rotate(82.5, 400, 400)"></path><path d="M579.2265053583837 623.2306337890284C582.7991438426159 621.1683415030432 587.2008561573841 621.1683415030432 590.7734946416163 623.2312111384927L654.2265101508353 659.8657666879401C657.7991486350675 661.9280589739254 660.0000047924516 665.7402974857846 660.0000047924516 669.8654594072195V743.1345705061144C660.0000047924516 747.2597324275494 657.7991486350675 751.0719709394085 654.2265101508353 753.134840574858L590.7734946416163 789.7693961243056C587.2008561573841 791.8316884102908 582.7991438426159 791.8316884102908 579.2265053583837 789.7688187748414L515.7734898491647 753.1342632253939C512.2008513649325 751.0719709394085 509.9999952075484 747.2597324275494 509.9999952075484 743.1345705061144V669.8654594072195C509.9999952075484 665.7402974857846 512.2008513649325 661.9280589739254 515.7734898491647 659.865189338476L579.2265053583837 623.2306337890284Z " stroke-width="3.375" stroke="#e35ab5" fill="none" opacity="0.295" transform="rotate(74.25, 400, 400)"></path><path d="M562.5849957812337 582.8117975192222C566.5545940970471 580.5203616459052 571.4453855579007 580.5203616459052 575.4149838737142 582.8124390186268L645.9183344395133 623.5175007402352C649.8879327553268 625.8089366135522 652.3333284857536 630.0447571822847 652.3333284857536 634.6282704283233V716.0383938715399C652.3333284857536 720.6219071175788 649.8879327553268 724.8577276863111 645.9183344395133 727.1498050590328L575.4149838737142 767.8548667806411C571.4453855579007 770.1463026539582 566.5545940970471 770.1463026539582 562.5849957812337 767.8542252812365L492.08164521543466 727.1491635596282C488.1120468996212 724.8577276863111 485.6666511691944 720.6219071175788 485.6666511691944 716.0383938715399V634.6282704283233C485.6666511691944 630.0447571822847 488.1120468996212 625.8089366135522 492.08164521543466 623.5168592408305L562.5849957812337 582.8117975192222Z " stroke-width="3.1666666666666665" stroke="#d962bf" fill="none" opacity="0.3733333333333333" transform="rotate(66, 400, 400)"></path><path d="M545.9435014628727 542.3929688788103C550.3100596102674 539.8723894181616 555.6899302172064 539.8723894181616 560.0564883646013 542.3936745281554L637.6101739869803 587.1692424219245C641.976732134375 589.6898218825734 644.6666674378446 594.3492245081791 644.6666674378446 599.3910890788216V688.94222486636C644.6666674378446 693.9840894370025 641.976732134375 698.6434920626082 637.6101739869803 701.164777172602L560.0564883646013 745.9403450663712C555.6899302172064 748.4609245270199 550.3100596102674 748.4609245270199 545.9435014628727 745.9396394170261L468.3898158404938 701.164071523257C464.0232576930989 698.6434920626082 461.3333223896295 693.9840894370025 461.3333223896295 688.94222486636V599.3910890788216C461.3333223896295 594.3492245081791 464.0232576930989 589.6898218825734 468.3898158404938 587.1685367725795L545.9435014628727 542.3929688788103Z " stroke-width="2.958333333333333" stroke="#cf6ac8" fill="none" opacity="0.4516666666666666" transform="rotate(57.75, 400, 400)"></path><path d="M529.3020071445117 501.97415549718767C534.0655251234879 499.22443244920726 539.9344748765121 499.22443244920726 544.6979928554883 501.9749252964732L629.3020135344472 550.8209993624032C634.0655315134234 553.5707224103837 637.0000063899355 558.6537070928625 637.0000063899355 564.153922988109V661.8460711199691C637.0000063899355 667.3462870152155 634.0655315134234 672.4292716976945 629.3020135344472 675.1797645449603L544.6979928554883 724.0258386108903C539.9344748765121 726.7755616588709 534.0655251234879 726.7755616588709 529.3020071445117 724.0250688116048L444.69798646555284 675.1789947456748C439.9344684865767 672.4292716976945 436.9999936100645 667.3462870152155 436.9999936100645 661.8460711199691V564.153922988109C436.9999936100645 558.6537070928625 439.9344684865767 553.5707224103837 444.69798646555284 550.8202295631177L529.3020071445117 501.97415549718767Z " stroke-width="2.75" stroke="#c472d1" fill="none" opacity="0.53" transform="rotate(49.5, 400, 400)"></path><path d="M512.6604975673616 461.55532685677576C517.8209753779191 458.57646022146366 524.1790042770288 458.57646022146366 529.3394820875862 461.5561608060018L620.9938378231251 514.4727410440927C626.1543156336826 517.4516076794048 629.3333300832373 522.9581744187569 629.3333300832373 528.9167416386073V634.7499021147889C629.3333300832373 640.7084693346393 626.1543156336826 646.2150360739915 620.9938378231251 649.1947366585296L529.3394820875862 702.1113168966205C524.1790042770288 705.0901835319326 517.8209753779191 705.0901835319326 512.6604975673616 702.1104829473945L421.0061418318229 649.1939027093036C415.84566402126535 646.2150360739915 412.66664957171054 640.7084693346393 412.66664957171054 634.7499021147889V528.9167416386073C412.66664957171054 522.9581744187569 415.84566402126535 517.4516076794048 421.0061418318229 514.4719070948667L512.6604975673616 461.55532685677576Z " stroke-width="2.5416666666666665" stroke="#b879d9" fill="none" opacity="0.6083333333333332" transform="rotate(41.25, 400, 400)"></path><path d="M496.0190032490006 421.13653636333675C501.57644089113944 417.9285261406929 508.4235489363345 417.9285261406929 513.9809865784733 421.13743446250317L612.685677370592 478.1245208727549C618.2431150127309 481.33253109539874 621.6666690353284 487.26267989162415 621.6666690353284 493.6795984360783V607.6537712565816C621.6666690353284 614.0706898010359 618.2431150127309 620.0008385972613 612.685677370592 623.2097469190717L513.9809865784733 680.1968333293233C508.4235489363345 683.4048435519671 501.57644089113944 683.4048435519671 496.0190032490006 680.1959352301568L397.31431245688196 623.2088488199051C391.7568748147431 620.0008385972613 388.33332079214557 614.0706898010359 388.33332079214557 607.6537712565816V493.6795984360783C388.33332079214557 487.26267989162415 391.7568748147431 481.33253109539874 397.31431245688196 478.1236227735884L496.0190032490006 421.13653636333675Z " stroke-width="2.333333333333333" stroke="#ab7fe1" fill="none" opacity="0.6866666666666665" transform="rotate(33, 400, 400)"></path><path d="M479.3775089306396 380.71770772292496C485.3319064043598 377.2805539129495 492.6680935956402 377.2805539129495 498.6224910693604 380.71866997203193L604.377516918059 441.77626255444443C610.3319143917792 445.21341636441997 614.0000079874194 451.56714721751865 614.0000079874194 458.4424170865767V580.5576022514017C614.0000079874194 587.4328721204597 610.3319143917792 593.7866029735585 604.377516918059 597.2247190326409L498.6224910693604 658.2823116150535C492.6680935956402 661.7194654250291 485.3319064043598 661.7194654250291 479.3775089306396 658.2813493659464L373.6224830819411 597.223756783534C367.66808560822085 593.7866029735585 363.99999201258066 587.4328721204597 363.99999201258066 580.5576022514017V458.4424170865767C363.99999201258066 451.56714721751865 367.66808560822085 445.21341636441997 373.6224830819411 441.7753003053375L479.3775089306396 380.71770772292496Z " stroke-width="2.125" stroke="#9e86e9" fill="none" opacity="0.7649999999999999" transform="rotate(24.75, 400, 400)"></path><path d="M462.73599935348955 340.2988638237241C469.0873566587911 336.63256642641693 476.91262299615687 336.63256642641693 483.26398030145845 340.2998902227715L596.0693412067369 405.4279889773449C602.4206985120384 409.09428637465214 606.3333316807212 415.87159928462404 606.3333316807212 423.205220478286V553.4614179874327C606.3333316807212 560.7950391810946 602.4206985120384 567.5723520910665 596.0693412067369 571.2396758874211L483.26398030145845 636.3677746419944C476.91262299615687 640.0340720393017 469.0873566587911 640.0340720393017 462.73599935348955 636.3667482429471L349.9306384482111 571.2386494883738C343.57928114290957 567.5723520910665 339.66664797422663 560.7950391810946 339.66664797422663 553.4614179874327V423.205220478286C339.66664797422663 415.87159928462404 343.57928114290957 409.09428637465214 349.9306384482111 405.4269625782975L462.73599935348955 340.2988638237241Z " stroke-width="1.9166666666666665" stroke="#8f8cf1" fill="none" opacity="0.8433333333333333" transform="rotate(16.5, 400, 400)"></path><path d="M446.09452029391764 299.8800351833123C452.8428374308005 295.9845941986734 461.1571829142516 295.9845941986734 467.9055000511345 299.88112573230023L587.7611960129929 369.0797306590344C594.5095131498758 372.9751716436734 598.6666858916013 380.17606661051855 598.6666858916013 387.9680391287843V526.3652489822528C598.6666858916013 534.1572215005185 594.5095131498758 541.3581164673637 587.7611960129929 545.2546480009904L467.9055000511345 614.4532529277246C461.1571829142516 618.3486939123635 452.8428374308005 618.3486939123635 446.09452029391764 614.4521623787367L326.23882433205927 545.2535574520026C319.49050719517635 541.3581164673637 315.3333344534508 534.1572215005185 315.3333344534508 526.3652489822528V387.9680391287843C315.3333344534508 380.17606661051855 319.49050719517635 372.9751716436734 326.23882433205927 369.0786401100466L446.09452029391764 299.8800351833123Z " stroke-width="1.708333333333333" stroke="#7e91f8" fill="none" opacity="0.9216666666666666" transform="rotate(8.25, 400, 400)"></path><path d="M429.4530107167675 259.46125231926777C436.59828768523175 255.33666774729716 445.40171231476825 255.33666774729716 452.5469892832325 259.46240701819613L579.4530203016707 332.7315181170911C586.5982972701349 336.8561026890618 591.0000095849032 344.48057971278024 591.0000095849032 352.7309035556499V499.2691257534399C591.0000095849032 507.5194495963096 586.5982972701349 515.143926620028 579.4530203016707 519.269665890927L452.5469892832325 592.538776989822C445.40171231476825 596.6633615617925 436.59828768523175 596.6633615617925 429.4530107167675 592.5376222908938L302.54697969832927 519.2685111919986C295.401702729865 515.143926620028 290.9999904150968 507.5194495963096 290.9999904150968 499.2691257534399V352.7309035556499C290.9999904150968 344.48057971278024 295.401702729865 336.8561026890618 302.54697969832927 332.7303634181629L429.4530107167675 259.46125231926777Z " stroke-width="1.5" stroke="#6b97ff" fill="none" opacity="1" transform="rotate(0, 400, 400)"></path></g></svg>